<svg xmlns="http://www.w3.org/2000/svg" width="256" height="256" viewBox="0 0 100 100"><rect width="100" height="100" rx="20" fill="#09ae4b"></rect><path d="M68.61 62.71L68.61 62.71Q68.61 70.45 63.05 74.90Q57.48 79.36 47.56 79.36L47.56 79.36Q38.42 79.36 31.39 75.92L31.39 75.92L31.39 64.67Q37.17 67.25 41.17 68.30Q45.18 69.36 48.50 69.36L48.50 69.36Q52.48 69.36 54.61 67.83Q56.74 66.31 56.74 63.30L56.74 63.30Q56.74 61.62 55.80 60.31Q54.86 59.00 53.05 57.79Q51.23 56.58 45.64 53.93L45.64 53.93Q40.41 51.46 37.79 49.20Q35.18 46.93 33.61 43.93Q32.05 40.92 32.05 36.89L32.05 36.89Q32.05 29.32 37.19 24.98Q42.32 20.64 51.39 20.64L51.39 20.64Q55.84 20.64 59.88 21.70Q63.93 22.75 68.34 24.67L68.34 24.67L64.43 34.08Q59.86 32.21 56.88 31.46Q53.89 30.72 51.00 30.72L51.00 30.72Q47.56 30.72 45.72 32.32Q43.89 33.93 43.89 36.50L43.89 36.50Q43.89 38.11 44.63 39.30Q45.37 40.49 46.99 41.60Q48.61 42.71 54.67 45.61L54.67 45.61Q62.68 49.43 65.64 53.28Q68.61 57.13 68.61 62.71Z" fill="#fff"></path></svg>